<svg width="512" height="512" viewBox="0 0 512 512" fill="none" xmlns="http://www.w3.org/2000/svg">
<g clip-path="url(#clip0_553_2151)">
<mask id="mask0_553_2151" style="mask-type:luminance" maskUnits="userSpaceOnUse" x="0" y="0" width="512" height="512">
<path d="M0 0H512V512H0V0Z" fill="white"/>
</mask>
<g mask="url(#mask0_553_2151)">
<path d="M39.7543 87.04C85.8343 60.8 149.194 48 203.594 48C362.954 48 464.074 122.24 464.074 222.72C464.074 302.72 394.314 352 301.514 352C226.634 352 170.954 324.48 170.954 288C170.954 253.44 206.154 236.8 256.074 256L268.874 216.96C191.434 192 127.434 227.2 127.434 288C127.434 348.8 202.954 392.32 304.074 392.32C424.394 392.32 512.074 325.76 512.074 222.72C512.074 94.08 390.474 0 203.594 0C143.434 0 75.5943 15.36 19.9143 45.44L39.7543 87.04ZM472.394 424.96C426.314 451.2 362.954 464 308.554 464C149.194 464 48.0743 389.76 48.0743 289.28C48.0743 209.28 117.834 160 210.634 160C285.514 160 341.194 187.52 341.194 224C341.194 258.56 305.994 275.2 256.074 256L243.274 295.04C320.714 320 384.714 284.8 384.714 224C384.714 163.2 309.194 119.68 208.074 119.68C87.7543 119.68 0.0742188 186.24 0.0742188 289.28C0.0742188 417.92 121.674 512 308.554 512C368.714 512 436.554 496.64 492.234 466.56L472.394 424.96Z" fill="url(#paint0_linear_553_2151)"/>
</g>
</g>
<defs>
<linearGradient id="paint0_linear_553_2151" x1="50.7009" y1="92.1197" x2="753.213" y2="637.312" gradientUnits="userSpaceOnUse">
<stop stop-color="#955AE0"/>
<stop offset="1" stop-color="#4D67F0"/>
</linearGradient>
<clipPath id="clip0_553_2151">
<rect width="512" height="512" fill="white"/>
</clipPath>
</defs>
</svg>
