<svg width="512" height="512" viewBox="0 0 512 512" fill="none" xmlns="http://www.w3.org/2000/svg">
<g clip-path="url(#clip0_553_2210)">
<path d="M512 479.404V207.658C512 194.625 504.231 182.844 492.255 177.71L192.33 49.1657C188.276 47.4296 183.906 46.5312 179.494 46.5312H32.5818C14.5874 46.5313 0 61.1185 0 79.113V222.841C0 229.278 1.90836 235.571 5.48306 240.928L176.71 497.478C182.751 506.535 192.922 511.972 203.809 511.972L479.418 511.986C497.413 511.986 512 497.398 512 479.404Z" fill="url(#paint0_linear_553_2210)"/>
<path d="M465.454 116.154V32.5818C465.454 14.5874 450.867 0 432.873 0H328.131C326.591 0 325.05 0.111712 323.523 0.325816L27.9738 42.5472C11.925 44.8372 0 58.5867 0 74.7986V200.182C0 218.182 14.592 232.769 32.5911 232.765L180.899 232.727C184.399 232.727 187.876 232.164 191.194 231.056L443.178 147.06C456.481 142.625 465.454 130.178 465.454 116.154Z" fill="url(#paint1_linear_553_2210)"/>
<path d="M465.456 127.581L465.442 32.5772C465.438 14.5874 450.85 0 432.86 0H340.807C331.298 0 322.259 4.15651 316.068 11.3757L54.3898 316.667C49.3303 322.574 46.5469 330.096 46.5469 337.874V432.878C46.5469 450.872 61.1342 465.459 79.1287 465.459H171.195C180.705 465.459 189.744 461.302 195.934 454.083L457.613 148.792C462.678 142.886 465.456 135.363 465.456 127.581Z" fill="#F0EB18"/>
<path d="M416 96H96V416H416V96Z" fill="black"/>
<path fill-rule="evenodd" clip-rule="evenodd" d="M182.469 135.727H136.754V255.806H182.469C193.847 255.806 204.024 253.233 213.003 248.087C222.036 242.94 229.099 235.864 234.19 226.752C239.276 217.535 241.822 207.242 241.822 195.768C241.822 184.295 239.276 174.002 234.19 164.891C229.099 155.774 222.036 148.592 213.003 143.446C204.024 138.299 193.847 135.727 182.469 135.727ZM200.996 230.722C195.62 233.939 189.362 235.547 182.212 235.547L160.17 235.543V155.99H182.212C189.357 155.99 195.62 157.598 200.996 160.815C206.372 163.926 210.517 168.534 213.435 174.539C216.352 180.545 217.809 187.622 217.809 195.768C217.809 203.915 216.352 210.991 213.435 216.997C210.517 223.003 206.372 227.611 200.996 230.722Z" fill="white"/>
<path d="M274.876 253.129C281.627 256.345 289.346 257.848 298.035 257.848C306.729 257.848 314.453 256.235 321.199 253.019C327.948 249.908 333.177 245.405 336.895 239.831C340.667 234.152 342.555 227.824 342.555 220.748C342.555 214.959 341.269 209.596 338.695 204.771C336.123 199.841 332.52 195.766 327.888 192.444C323.316 189.016 318.083 186.764 312.192 185.584L291.777 181.08C288.059 180.225 285.114 178.617 282.941 176.472C280.823 174.325 279.766 171.536 279.766 168.214C279.766 165.319 280.538 162.746 282.082 160.6C283.625 158.349 285.771 156.635 288.515 155.454C291.317 154.168 294.547 153.524 298.205 153.524C301.863 153.524 305.093 154.273 307.896 155.56C310.754 156.847 312.955 158.565 314.499 160.922C316.043 163.28 316.815 165.852 316.815 168.747H340.231C340.171 161.883 338.342 155.771 334.739 150.519C331.197 145.263 326.22 141.081 319.815 138.08C313.41 135.186 306.007 133.688 297.943 133.688C289.879 133.688 282.674 135.186 276.328 138.296C269.983 141.302 265.039 145.589 261.491 151.056C257.949 156.52 256.175 162.636 256.175 169.496C256.175 175.18 257.347 180.221 259.691 184.83C262.039 189.332 265.323 193.082 269.555 196.193C273.787 199.193 278.764 201.34 284.48 202.626L305.667 207.345C309.729 208.31 312.899 210.024 315.188 212.597C317.531 215.064 318.703 218.281 318.703 222.14C318.703 225.141 317.844 227.93 316.13 230.288C314.476 232.755 312.1 234.579 309.012 235.972C305.979 237.258 302.603 238.007 298.375 238.007C294.147 238.007 290.399 237.258 287.14 235.756C283.883 234.257 281.337 232.217 279.508 229.539C277.679 226.965 276.765 223.859 276.765 220.427H253.262C253.377 227.719 255.32 234.257 259.093 239.941C262.925 245.625 268.187 250.023 274.876 253.129Z" fill="white"/>
<path d="M135.953 352.008H263.953V376.008H135.953V352.008Z" fill="white"/>
</g>
<defs>
<linearGradient id="paint0_linear_553_2210" x1="31.8557" y1="33.7638" x2="501.494" y2="503.403" gradientUnits="userSpaceOnUse">
<stop offset="0.28" stop-color="#007DFE"/>
<stop offset="0.73" stop-color="#00D980"/>
</linearGradient>
<linearGradient id="paint1_linear_553_2210" x1="451.03" y1="-5.73904" x2="15.509" y2="196.185" gradientUnits="userSpaceOnUse">
<stop offset="0.32" stop-color="#F0EB18"/>
<stop offset="0.55" stop-color="#007DFE"/>
</linearGradient>
<clipPath id="clip0_553_2210">
<rect width="512" height="512" fill="white"/>
</clipPath>
</defs>
</svg>
