<svg width="512" height="512" viewBox="0 0 512 512" fill="none" xmlns="http://www.w3.org/2000/svg">
<g clip-path="url(#clip0_553_2282)">
<path d="M479.046 0H206.028C192.763 0 180.789 7.94492 175.629 20.1648L49.2447 319.532C47.4947 323.677 46.6097 328.137 46.6497 332.637L47.8497 479.266C47.9997 497.385 62.7296 511.995 80.8496 511.995H222.173C228.618 511.995 234.918 510.11 240.303 506.57L497.175 337.702C506.46 331.602 512.045 321.237 512.045 310.127V32.9997C512.045 14.7749 497.27 0 479.046 0Z" fill="url(#paint0_linear_553_2282)"/>
<path d="M119.946 48H33.0466C14.8218 48 0.046875 62.7749 0.046875 81V181.524C0.046875 183.124 0.161867 184.724 0.396867 186.309L43.9814 483.786C46.3564 499.99 60.2563 512.001 76.6311 512.001H199.81C218.04 512.001 232.814 497.221 232.81 478.99L232.774 330.958C232.774 327.552 232.245 324.167 231.21 320.927L151.381 70.9648C147.01 57.2899 134.301 48 119.946 48Z" fill="url(#paint1_linear_553_2282)"/>
<path d="M131.646 48H33.5766C15.1467 48 0.286883 63.0949 0.581875 81.5248L0.046875 167.999C0.196875 177.449 6.33682 188.244 13.5118 194.394L318.778 456.046C324.758 461.171 332.378 463.991 340.254 463.991H431.048C449.273 463.991 464.047 449.216 464.047 430.991V342.967C464.047 333.452 459.938 324.398 452.778 318.132L153.375 56.165C147.361 50.9 139.641 48 131.646 48Z" fill="#FDB60D"/>
<path d="M416.048 96H96.0469V415.997H416.044L416.048 96Z" fill="black"/>
<path fill-rule="evenodd" clip-rule="evenodd" d="M136.145 135.938H187.679C196.084 135.938 203.484 137.482 209.889 140.567C216.289 143.653 221.218 147.997 224.678 153.602C228.138 159.207 229.869 165.692 229.869 173.067C229.869 180.442 228.109 187.057 224.593 192.747C221.078 198.437 216.073 202.837 209.589 205.952C207.804 206.808 205.941 207.547 203.999 208.169L232.443 255.991H205.604L179.723 210.626H159.554V255.986H136.145V135.938ZM196.469 188.977C199.413 187.517 201.684 185.432 203.284 182.717C204.884 180.002 205.684 176.842 205.684 173.242C205.684 169.642 204.884 166.427 203.284 163.767C201.684 161.107 199.409 159.052 196.469 157.592C193.524 156.132 190.079 155.407 186.134 155.407H159.549V191.167H186.134C190.079 191.167 193.524 190.432 196.469 188.977Z" fill="white"/>
<path d="M264.045 351.984H136.047V375.984H264.045V351.984Z" fill="white"/>
<path fill-rule="evenodd" clip-rule="evenodd" d="M342.541 225.377V210.112L324.84 210.142L330.903 181.847L351.116 181.812V166.377L334.212 166.406L340.741 135.938H323.676L317.141 166.436L291.582 166.481L298.127 135.938H281.062L274.511 166.51L253.532 166.547V181.982L271.202 181.951L265.139 210.246L244.957 210.281V225.546L261.866 225.517L255.337 255.986H272.402L278.937 225.487L304.496 225.443L297.951 255.986H315.016L321.567 225.413L342.541 225.377ZM282.21 210.217L307.769 210.172L313.832 181.877L288.273 181.921L282.21 210.217Z" fill="white"/>
</g>
<defs>
<linearGradient id="paint0_linear_553_2282" x1="34.6398" y1="479.46" x2="503.406" y2="10.6949" gradientUnits="userSpaceOnUse">
<stop offset="0.29" stop-color="#FF45ED"/>
<stop offset="0.7" stop-color="#FF0A67"/>
</linearGradient>
<linearGradient id="paint1_linear_553_2282" x1="-3.0781" y1="61.3649" x2="195.19" y2="489.001" gradientUnits="userSpaceOnUse">
<stop offset="0.3" stop-color="#FDB60D"/>
<stop offset="0.54" stop-color="#FF45ED"/>
</linearGradient>
<clipPath id="clip0_553_2282">
<rect width="512" height="512" fill="white"/>
</clipPath>
</defs>
</svg>
