<svg width="512" height="512" viewBox="0 0 512 512" fill="none" xmlns="http://www.w3.org/2000/svg">
<g clip-path="url(#clip0_553_2334)">
<path d="M10.4507 409.957C9.67568 409.386 9.42072 408.342 9.84072 407.477L70.9257 281.672L0.465708 197.526C-0.244291 196.682 -0.129292 195.417 0.720708 194.712L206.23 23.4567C242.796 -7.02327 295.736 -7.88327 333.301 21.3718C370.85 50.6267 382.85 102.077 362.076 144.862L339.681 190.997C348.416 188.066 357.061 185.402 365.61 183.006L467.001 153.882C468.106 153.562 469.256 154.242 469.506 155.366L511.95 344.046C512.21 345.212 511.421 346.352 510.23 346.502C496.776 348.197 423.37 358.742 331.981 397.137C228.436 440.626 160.106 502.437 150.426 511.477C149.71 512.146 148.661 512.172 147.876 511.592L10.4507 409.957Z" fill="url(#paint0_linear_553_2334)"/>
<path d="M416 96H96V416H416V96Z" fill="black"/>
<path d="M171.733 210.967L127.828 135.938H153.039L180.223 183.873L183.399 190.733L186.573 183.787L213.068 135.938H237.848L194.628 210.798V255.987H171.733V210.967Z" fill="white"/>
<path d="M264 351.988H136V375.988H264V351.988Z" fill="white"/>
<path d="M338.597 135.938H242.302L242.297 157.033H278.826V255.987H302.237V157.033H338.597V135.938Z" fill="white"/>
</g>
<defs>
<linearGradient id="paint0_linear_553_2334" x1="-0.819291" y1="256.002" x2="512.426" y2="256.002" gradientUnits="userSpaceOnUse">
<stop stop-color="#FB43FF"/>
<stop offset="0.97" stop-color="#FB406D"/>
</linearGradient>
<clipPath id="clip0_553_2334">
<rect width="512" height="512" fill="white"/>
</clipPath>
</defs>
</svg>
