<svg width="512" height="512" viewBox="0 0 512 512" fill="none" xmlns="http://www.w3.org/2000/svg">
<g clip-path="url(#clip0_553_2274)">
<path d="M380.4 464H478.47C496.9 464 511.76 448.905 511.465 430.475L510.055 342.13C509.905 332.68 505.71 323.75 498.535 317.6L193.27 55.945C187.29 50.82 179.67 48 171.795 48H81C62.775 48 48 62.775 48 81V169.025C48 178.54 52.11 187.595 59.27 193.86L358.67 455.835C364.685 461.1 372.405 464 380.4 464Z" fill="#7256FF"/>
<path d="M392.105 464H478.999C497.224 464 511.999 449.225 511.999 431V330.475C511.999 328.875 511.884 327.275 511.65 325.69L468.064 28.215C465.69 12.01 451.79 0 435.414 0H312.234C294.004 0 279.23 14.78 279.234 33.01L279.27 181.045C279.27 184.45 279.799 187.835 280.834 191.075L360.664 441.04C365.034 454.715 377.75 464 392.105 464Z" fill="url(#paint0_linear_553_2274)"/>
<path d="M33 512H306.02C319.285 512 331.26 504.055 336.42 491.835L462.8 192.465C464.55 188.32 465.435 183.86 465.395 179.36L464.195 32.73C464.045 14.61 449.315 0 431.195 0H289.87C283.425 0 277.125 1.885 271.74 5.425L14.875 174.295C5.59 180.4 0 190.76 0 201.87V479C0 497.225 14.775 512 33 512Z" fill="url(#paint1_linear_553_2274)"/>
<path d="M416 96H96V416H416V96Z" fill="black"/>
<path fill-rule="evenodd" clip-rule="evenodd" d="M159.544 249.94C150.2 244.54 142.85 237.105 137.504 227.645C132.16 218.185 129.484 207.625 129.484 195.96C129.484 184.295 132.155 173.735 137.504 164.275C142.85 154.815 150.195 147.38 159.544 141.98C168.89 136.58 179.34 133.875 190.884 133.875C202.43 133.875 212.795 136.575 222.14 141.98C231.484 147.38 238.82 154.815 244.135 164.275C249.45 173.735 252.11 184.295 252.11 195.96C252.11 207.625 249.45 218.185 244.135 227.645C238.82 237.105 231.484 244.54 222.14 249.94C216.039 253.465 209.48 255.841 202.464 257.067V257.609C202.464 259.38 202.81 260.91 203.495 262.195C204.18 263.48 205.164 264.455 206.455 265.109C207.74 265.765 209.27 266.095 211.044 266.095H225.71V283.415H206.415C201.21 283.415 196.655 282.4 192.74 280.369L192.735 280.38C188.82 278.349 185.815 275.475 183.73 271.76C181.64 268.045 180.6 263.67 180.6 258.64L180.592 257.282C173.058 256.133 166.023 253.686 159.544 249.94ZM210.01 232.105C215.67 228.535 220.1 223.585 223.3 217.27C226.5 210.955 228.1 203.85 228.1 195.96C228.1 188.07 226.5 180.97 223.3 174.649C220.1 168.335 215.67 163.389 210.01 159.815C204.35 156.245 197.975 154.455 190.89 154.455C183.804 154.455 177.415 156.24 171.724 159.815C166.035 163.389 161.575 168.335 158.35 174.649C155.12 180.965 153.504 188.07 153.504 195.96C153.504 203.85 155.12 210.955 158.35 217.27C161.58 223.585 166.04 228.535 171.724 232.105C177.415 235.68 183.8 237.465 190.89 237.465C197.98 237.465 204.355 235.68 210.01 232.105Z" fill="white"/>
<path d="M263.949 351.984H135.949V375.984H263.949V351.984Z" fill="white"/>
<path fill-rule="evenodd" clip-rule="evenodd" d="M318.311 135.934H272.605V255.983H318.311C329.685 255.983 339.876 253.414 348.881 248.269C357.881 243.123 364.925 235.994 370.016 226.874C375.101 217.754 377.645 207.454 377.645 195.958C377.645 184.463 375.101 174.163 370.016 165.043C364.931 155.923 357.885 148.794 348.881 143.648C339.876 138.503 329.685 135.934 318.311 135.934ZM349.271 217.178C346.356 223.154 342.211 227.743 336.836 230.943C331.461 234.143 325.201 235.738 318.056 235.738H296.016V156.163H318.056C325.201 156.163 331.461 157.763 336.836 160.963C342.211 164.168 346.356 168.754 349.271 174.728C352.185 180.703 353.645 187.774 353.645 195.954C353.645 204.134 352.185 211.203 349.271 217.178Z" fill="white"/>
</g>
<defs>
<linearGradient id="paint0_linear_553_2274" x1="515.13" y1="450.635" x2="316.859" y2="23" gradientUnits="userSpaceOnUse">
<stop offset="0.1" stop-color="#7256FF"/>
<stop offset="0.59" stop-color="#FF2D90"/>
</linearGradient>
<linearGradient id="paint1_linear_553_2274" x1="477.41" y1="32.54" x2="8.63998" y2="501.31" gradientUnits="userSpaceOnUse">
<stop offset="0.21" stop-color="#FF2D90"/>
<stop offset="0.7" stop-color="#FF8200"/>
</linearGradient>
<clipPath id="clip0_553_2274">
<rect width="512" height="512" fill="white"/>
</clipPath>
</defs>
</svg>
