<svg width="512" height="512" viewBox="0 0 512 512" fill="none" xmlns="http://www.w3.org/2000/svg">
<g clip-path="url(#clip0_553_2318)">
<path d="M48 380.401V478.47C48 496.9 63.0952 511.759 81.5248 511.465L169.869 510.054C179.318 509.905 188.249 505.71 194.398 498.534L456.05 193.268C461.175 187.288 463.995 179.668 463.995 171.794V81C463.995 62.7748 449.22 48 430.995 48H342.972C333.457 48 324.402 52.11 318.137 59.2699L56.165 358.666C50.9 364.681 48 372.406 48 380.401Z" fill="#3BEA62"/>
<path d="M48 392.118V479.012C48 497.237 62.7748 512.012 81 512.012H181.524C183.124 512.012 184.723 511.896 186.309 511.662L483.785 468.077C499.99 465.702 512 451.803 512 435.428V312.249C512 294.02 497.22 279.244 478.99 279.25L330.957 279.284C327.552 279.284 324.167 279.815 320.927 280.849L70.965 360.679C57.2902 365.048 48 377.764 48 392.118Z" fill="url(#paint0_linear_553_2318)"/>
<path d="M0 33.0046V306.022C0 319.286 7.94494 331.261 20.1648 336.421L319.531 462.799C323.676 464.55 328.136 465.434 332.636 465.394L479.265 464.194C497.384 464.045 511.994 449.314 511.994 431.195V289.871C511.994 283.426 510.11 277.126 506.57 271.742L337.701 14.8698C331.602 5.58493 321.237 0 310.126 0H32.9996C14.7748 0 0 14.7798 0 33.0046Z" fill="url(#paint1_linear_553_2318)"/>
<path d="M415.996 96H96V415.996H415.996V96Z" fill="black"/>
<path d="M240.349 227.675C245.665 237.135 252.98 244.569 262.3 249.969V249.949C271.62 255.354 282.025 258.054 293.514 258.054C303.234 258.054 312.149 256.254 320.269 252.654C328.384 249.055 335.149 244.009 340.549 237.52C345.949 231.03 349.564 223.585 351.394 215.18H326.869C325.269 219.525 322.884 223.345 319.709 226.63C316.539 229.92 312.724 232.45 308.264 234.22C303.804 235.995 298.944 236.88 293.684 236.88C286.594 236.88 280.189 235.11 274.474 231.565C268.76 228.02 264.285 223.15 261.054 216.945C257.825 210.745 256.21 203.755 256.21 195.981C256.21 188.205 257.825 181.221 261.054 175.016C264.285 168.816 268.76 163.941 274.474 160.396C280.194 156.851 286.594 155.081 293.684 155.081C298.944 155.081 303.804 155.971 308.264 157.741C312.719 159.516 316.539 162.045 319.709 165.331C322.884 168.621 325.269 172.436 326.869 176.781H351.394C349.564 168.376 345.949 160.931 340.549 154.441C335.144 147.951 328.384 142.906 320.269 139.306C312.149 135.706 303.234 133.906 293.514 133.906C282.019 133.906 271.614 136.611 262.3 142.011C252.985 147.411 245.665 154.845 240.349 164.305C235.035 173.765 232.375 184.325 232.375 195.99C232.375 207.655 235.035 218.215 240.349 227.675Z" fill="white"/>
<path d="M128.013 135.961H224.306V157.056H187.947V256.01H164.537V157.056H128.008L128.013 135.961Z" fill="white"/>
<path d="M263.998 352.008H136V376.007H263.998V352.008Z" fill="white"/>
</g>
<defs>
<linearGradient id="paint0_linear_553_2318" x1="61.3649" y1="515.136" x2="489" y2="316.874" gradientUnits="userSpaceOnUse">
<stop offset="0.1" stop-color="#3BEA62"/>
<stop offset="0.59" stop-color="#6B57FF"/>
</linearGradient>
<linearGradient id="paint1_linear_553_2318" x1="479.459" y1="477.404" x2="10.695" y2="8.63973" gradientUnits="userSpaceOnUse">
<stop offset="0.26" stop-color="#6B57FF"/>
<stop offset="0.65" stop-color="#07C3F2"/>
</linearGradient>
<clipPath id="clip0_553_2318">
<rect width="512" height="512" fill="white"/>
</clipPath>
</defs>
</svg>
