<svg width="512" height="512" viewBox="0 0 512 512" fill="none" xmlns="http://www.w3.org/2000/svg">
<g clip-path="url(#clip0_553_2266)">
<path d="M465.456 127.581L465.442 32.5772C465.438 14.5874 450.85 0 432.86 0H340.807C331.298 0 322.259 4.15651 316.068 11.3757L54.3898 316.667C49.3303 322.574 46.5469 330.096 46.5469 337.874V432.878C46.5469 450.872 61.1342 465.459 79.1287 465.459H171.195C180.705 465.459 189.744 461.302 195.934 454.083L457.609 148.792C462.673 142.886 465.456 135.363 465.456 127.581Z" fill="#D249FC"/>
<path d="M465.454 116.154V32.5818C465.454 14.5874 450.867 0 432.873 0H328.131C326.591 0 325.05 0.111712 323.523 0.325816L27.9738 42.5472C11.925 44.8372 0 58.5867 0 74.7986V200.182C0 218.182 14.592 232.769 32.5911 232.765L180.899 232.727C184.399 232.727 187.876 232.164 191.194 231.056L443.178 147.06C456.481 142.625 465.454 130.178 465.454 116.154Z" fill="url(#paint0_linear_553_2266)"/>
<path d="M512 479.404V207.658C512 194.625 504.231 182.844 492.255 177.71L192.33 49.1657C188.276 47.4296 183.906 46.5312 179.494 46.5312H32.5818C14.5874 46.5313 0 61.1185 0 79.113V222.841C0 229.278 1.90836 235.571 5.48306 240.928L176.71 497.478C182.751 506.535 192.922 511.972 203.809 511.972L479.418 511.986C497.413 511.986 512 497.398 512 479.404Z" fill="url(#paint1_linear_553_2266)"/>
<path d="M416 96H96V416H416V96Z" fill="black"/>
<path fill-rule="evenodd" clip-rule="evenodd" d="M186.336 138.641H135.961V256.005H158.847V211.656H185.672C194.052 211.656 201.404 210.146 207.719 207.129C214.091 204.057 218.982 199.75 222.391 194.217C225.853 188.684 227.587 182.145 227.587 174.937C227.587 167.729 225.88 161.388 222.471 155.909C219.116 150.429 214.311 146.185 208.051 143.168C201.79 140.149 194.551 138.641 186.336 138.641ZM194.883 190.534C192.031 191.931 188.681 192.632 184.823 192.632H158.834V157.673H184.823C188.681 157.673 192.031 158.397 194.883 159.852C197.789 161.244 200.021 163.256 201.588 165.888C203.155 168.452 203.937 171.587 203.937 175.108C203.937 178.629 203.151 181.732 201.588 184.413C200.025 187.045 197.789 189.079 194.883 190.534Z" fill="white"/>
<path d="M257.139 253.41C264.015 256.482 271.753 258.022 280.363 258.022C289.021 258.022 296.786 256.486 303.662 253.415C310.538 250.343 315.899 246.067 319.758 240.588C323.615 235.055 325.542 228.767 325.542 221.726C325.542 216.027 324.311 210.776 321.855 205.967C319.399 201.103 315.904 197.047 311.377 193.81C306.909 190.571 301.739 188.415 295.87 187.356L272.566 182.995C268.875 182.272 265.995 180.812 263.93 178.635C261.859 176.403 260.827 173.658 260.827 170.42C260.827 167.623 261.666 165.17 263.341 163.042C265.016 160.859 267.365 159.152 270.383 157.926C273.401 156.7 276.729 156.08 280.528 156.08C284.328 156.08 287.736 156.718 290.755 158.007C293.772 159.233 296.121 160.971 297.796 163.203C299.53 165.435 300.397 168.013 300.397 170.914H323.283C323.229 164.209 321.329 158.29 317.584 153.143C313.897 147.943 308.782 143.887 302.243 140.986C295.758 138.08 288.383 136.625 280.277 136.625C272.171 136.625 264.877 138.103 258.397 141.067C251.966 144.035 246.909 148.163 243.222 153.475C239.588 158.788 237.774 164.847 237.774 171.669C237.774 177.202 238.892 182.231 241.129 186.759C243.365 191.231 246.549 194.973 250.686 197.991C254.875 200.955 259.793 202.967 265.439 204.027L289.497 208.639C293.463 209.425 296.566 211.1 298.803 213.669C301.093 216.183 302.238 219.319 302.238 223.059C302.238 226.078 301.317 228.759 299.471 231.107C297.631 233.456 295.057 235.298 291.76 236.64C288.518 237.929 284.831 238.567 280.695 238.567C276.339 238.567 272.422 237.844 268.959 236.389C265.547 234.934 262.839 232.922 260.827 230.353C258.873 227.726 257.894 224.739 257.894 221.384H234.922C235.035 228.543 237.047 234.911 240.958 240.498C244.87 246.031 250.263 250.338 257.139 253.41Z" fill="white"/>
<path d="M135.953 352.012H263.953V376.012H135.953V352.012Z" fill="white"/>
</g>
<defs>
<linearGradient id="paint0_linear_553_2266" x1="451.03" y1="-5.73906" x2="22.0206" y2="193.168" gradientUnits="userSpaceOnUse">
<stop offset="0.16" stop-color="#D249FC"/>
<stop offset="0.55" stop-color="#FF2D90"/>
</linearGradient>
<linearGradient id="paint1_linear_553_2266" x1="31.8557" y1="33.7638" x2="501.494" y2="503.407" gradientUnits="userSpaceOnUse">
<stop offset="0.3" stop-color="#FF2D90"/>
<stop offset="0.7" stop-color="#7256FF"/>
</linearGradient>
<clipPath id="clip0_553_2266">
<rect width="512" height="512" fill="white"/>
</clipPath>
</defs>
</svg>
