<svg width="512" height="512" viewBox="0 0 512 512" fill="none" xmlns="http://www.w3.org/2000/svg">
<g clip-path="url(#clip0_553_2180)">
<path d="M512 479.404V207.658C512 194.625 504.231 182.844 492.255 177.71L192.33 49.1657C188.276 47.4296 183.906 46.5312 179.494 46.5312H32.5818C14.5874 46.5313 0 61.1185 0 79.113V222.841C0 229.278 1.90836 235.571 5.48306 240.928L176.71 497.478C182.751 506.535 192.922 511.972 203.809 511.972L479.418 511.986C497.413 511.986 512 497.398 512 479.404Z" fill="url(#paint0_linear_553_2180)"/>
<path d="M465.454 116.154V32.5818C465.454 14.5874 450.867 0 432.873 0H328.131C326.591 0 325.05 0.111712 323.523 0.325816L27.9738 42.5472C11.9203 44.8372 0 58.5867 0 74.7986V200.182C0 218.182 14.592 232.769 32.5911 232.765L180.899 232.727C184.399 232.727 187.876 232.164 191.194 231.056L443.178 147.06C456.481 142.625 465.454 130.178 465.454 116.154Z" fill="url(#paint1_linear_553_2180)"/>
<path d="M465.451 127.581L465.438 32.5772C465.438 14.5874 450.85 0 432.855 0H340.802C331.294 0 322.254 4.15651 316.064 11.3757L54.3898 316.667C49.3303 322.574 46.5469 330.096 46.5469 337.874V432.878C46.5469 450.872 61.1342 465.459 79.1287 465.459H171.195C180.705 465.459 189.744 461.302 195.934 454.083L457.608 148.792C462.673 142.886 465.451 135.363 465.451 127.581Z" fill="#FF318C"/>
<path d="M416 96H96V416H416V96Z" fill="black"/>
<path d="M160.377 249.288C169.652 254.632 180.007 257.311 191.439 257.311V257.302C201.108 257.302 209.986 255.509 218.063 251.925C226.141 248.341 232.852 243.34 238.201 236.908C243.604 230.422 247.22 222.998 249.039 214.636H224.633C223.037 218.956 220.651 222.774 217.465 226.07C214.333 229.316 210.553 231.82 206.114 233.58C201.679 235.34 196.843 236.228 191.609 236.228C184.555 236.228 178.183 234.468 172.495 230.938C166.804 227.409 162.338 222.577 159.097 216.433C155.911 210.239 154.319 203.263 154.319 195.528C154.319 187.793 155.911 180.849 159.097 174.705C162.343 168.506 166.809 163.642 172.495 160.113C178.183 156.584 184.555 154.824 191.609 154.824C196.839 154.824 201.675 155.711 206.114 157.471C210.553 159.231 214.333 161.768 217.465 165.064C220.651 168.309 223.037 172.095 224.633 176.415H249.039C247.215 168.054 243.604 160.662 238.201 154.23C232.852 147.743 226.141 142.71 218.063 139.126C209.986 135.542 201.108 133.75 191.439 133.75C180.002 133.75 169.647 136.447 160.377 141.855C151.101 147.199 143.819 154.6 138.53 164.04C133.241 173.425 130.594 183.921 130.594 195.528C130.594 207.135 133.241 217.663 138.53 227.103C143.823 236.488 151.106 243.88 160.377 249.288Z" fill="white"/>
<path d="M288.999 234.266V135.793H265.789V255.258H345.661V234.266H288.999Z" fill="white"/>
<path d="M135.953 351.992H263.953V375.992H135.953V351.992Z" fill="white"/>
</g>
<defs>
<linearGradient id="paint0_linear_553_2180" x1="31.851" y1="33.7638" x2="501.494" y2="503.403" gradientUnits="userSpaceOnUse">
<stop offset="0.29" stop-color="#009AE5"/>
<stop offset="0.7" stop-color="#00D980"/>
</linearGradient>
<linearGradient id="paint1_linear_553_2180" x1="451.03" y1="-5.73905" x2="22.0206" y2="193.164" gradientUnits="userSpaceOnUse">
<stop offset="0.3" stop-color="#FF318C"/>
<stop offset="0.54" stop-color="#009AE5"/>
</linearGradient>
<clipPath id="clip0_553_2180">
<rect width="512" height="512" fill="white"/>
</clipPath>
</defs>
</svg>
