<svg width="512" height="512" viewBox="0 0 512 512" fill="none" xmlns="http://www.w3.org/2000/svg">
<g clip-path="url(#clip0_553_2312)">
<path d="M479.42 0H207.674C194.641 0 182.86 7.76843 177.726 19.7446L49.1814 319.67C47.4452 323.724 46.5469 328.094 46.5469 332.506V479.418C46.5469 497.413 61.1342 512 79.1287 512H222.857C229.294 512 235.586 510.092 240.944 506.517L497.493 335.29C506.551 329.249 511.987 319.078 511.987 308.191L512.002 32.5818C512.002 14.5874 497.414 0 479.42 0Z" fill="url(#paint0_linear_553_2312)"/>
<path d="M116.154 46.5312H32.5818C14.5874 46.5312 0 61.1185 0 79.113V183.854C0 185.395 0.111712 186.936 0.325816 188.462L42.5426 484.012C44.8372 500.066 58.5821 511.986 74.7986 511.986H200.182C218.182 511.986 232.769 497.394 232.765 479.394L232.727 331.087C232.727 327.586 232.164 324.11 231.056 320.791L147.065 68.8079C142.63 55.5052 130.178 46.5312 116.154 46.5312Z" fill="url(#paint1_linear_553_2312)"/>
<path d="M127.581 46.5312L32.5772 46.5452C14.5874 46.5498 0 61.1372 0 79.127V171.18C0 180.69 4.15651 189.728 11.3757 195.919L316.662 457.598C322.57 462.657 330.091 465.44 337.869 465.44H432.873C450.867 465.44 465.454 450.853 465.454 432.858V340.792C465.454 331.282 461.298 322.243 454.079 316.053L148.792 54.3788C142.886 49.3146 135.363 46.5312 127.581 46.5312Z" fill="#FF8100"/>
<path d="M416 96H96V416H416V96Z" fill="black"/>
<path fill-rule="evenodd" clip-rule="evenodd" d="M335.163 136L311.336 214.771L309.536 225.057L307.479 214.771L282.794 136H250.225V256H273.28V170.374L272.936 164.717L300.536 256H317.508L345.448 164.115L345.108 170.374V256H368.251V136H335.163ZM210.13 206.029C216.646 202.889 221.641 198.485 225.131 192.828C228.672 187.116 230.444 180.541 230.444 173.111C230.444 165.682 228.699 159.258 225.214 153.656C221.784 148.054 216.871 143.715 210.47 140.63C204.069 137.544 196.672 136.001 188.269 136.001H136.754V255.996H160.154V210.653H180.316L206.186 255.996H233.015L204.418 207.921C204.989 207.739 205.57 207.573 206.152 207.406C207.524 207.013 208.895 206.619 210.13 206.029ZM160.163 155.456H186.735C190.68 155.456 194.105 156.195 197.02 157.683C199.992 159.106 202.278 161.168 203.876 163.854C205.474 166.476 206.277 169.626 206.277 173.281C206.277 176.936 205.479 180.054 203.876 182.795C202.278 185.486 199.992 187.562 197.02 189.054C194.105 190.477 190.68 191.198 186.735 191.198H160.163V155.456ZM135.953 352.001H263.953V376.001H135.953V352.001Z" fill="white"/>
</g>
<defs>
<linearGradient id="paint0_linear_553_2312" x1="33.7794" y1="480.149" x2="503.418" y2="10.5053" gradientUnits="userSpaceOnUse">
<stop offset="0.29" stop-color="#FF2358"/>
<stop offset="0.75" stop-color="#7256FF"/>
</linearGradient>
<linearGradient id="paint1_linear_553_2312" x1="-5.73905" y1="60.9603" x2="193.164" y2="489.965" gradientUnits="userSpaceOnUse">
<stop offset="0.29" stop-color="#FF8100"/>
<stop offset="0.56" stop-color="#FF2358"/>
</linearGradient>
<clipPath id="clip0_553_2312">
<rect width="512" height="512" fill="white"/>
</clipPath>
</defs>
</svg>
