<svg width="512" height="512" viewBox="0 0 512 512" fill="none" xmlns="http://www.w3.org/2000/svg">
<g clip-path="url(#clip0_553_2190)">
<path d="M32.5818 512H304.328C317.361 512 329.142 504.231 334.275 492.255L462.82 192.33C464.556 188.276 465.454 183.906 465.454 179.494V32.5818C465.454 14.5874 450.867 0 432.873 0H289.145C282.708 0 276.415 1.90836 271.058 5.48306L14.5082 176.705C5.45047 182.751 0.01396 192.917 0.01396 203.804L0 479.418C0 497.413 14.5874 512 32.5818 512Z" fill="url(#paint0_linear_553_2190)"/>
<path d="M395.85 465.454H479.422C497.416 465.454 512.003 450.867 512.003 432.873V328.131C512.003 326.591 511.892 325.05 511.678 323.523L469.456 27.9738C467.162 11.9203 453.417 0 437.2 0H311.816C293.817 0 279.23 14.592 279.234 32.5911L279.272 180.899C279.272 184.399 279.835 187.876 280.942 191.194L364.938 443.178C369.374 456.481 381.826 465.454 395.85 465.454Z" fill="url(#paint1_linear_553_2190)"/>
<path d="M384.417 465.44L479.421 465.426C497.415 465.426 511.998 450.839 511.998 432.845V340.792C511.998 331.282 507.842 322.243 500.622 316.053L195.331 54.3741C189.424 49.3146 181.902 46.5312 174.125 46.5312H79.1209C61.1264 46.5312 46.5391 61.1185 46.5391 79.113V171.18C46.5391 180.69 50.6956 189.728 57.9148 195.919L363.202 457.593C369.108 462.657 376.634 465.44 384.417 465.44Z" fill="#FF43F2"/>
<path d="M416 96H96V416H416V96Z" fill="black"/>
<path fill-rule="evenodd" clip-rule="evenodd" d="M182.008 138.914H135.953V259.892H182.008C193.47 259.892 203.724 257.299 212.769 252.115C221.87 246.93 228.985 239.76 234.114 230.598C239.238 221.382 241.803 210.98 241.803 199.403C241.803 187.825 239.238 177.456 234.114 168.295C228.985 159.079 221.87 151.876 212.769 146.691C203.724 141.507 193.47 138.914 182.008 138.914ZM200.673 234.658C195.257 237.884 188.952 239.496 181.749 239.496L159.544 239.5V159.31H181.749C188.948 159.31 195.257 160.916 200.673 164.148C206.089 167.374 210.264 172.008 213.204 178.058C216.144 184.052 217.611 191.163 217.611 199.403C217.611 207.643 216.144 214.78 213.204 220.831C210.264 226.826 206.089 231.427 200.673 234.658Z" fill="white"/>
<path d="M282.616 253.84C292.008 259.251 302.493 261.964 314.071 261.964C325.19 261.964 335.212 259.487 344.142 254.529C353.127 249.572 360.186 242.809 365.311 234.221C370.495 225.584 373.087 215.937 373.087 205.276V195.772H321.847V214.349H349.976C349.399 218.833 347.771 222.924 345.091 226.621C341.924 230.995 337.633 234.43 332.217 236.902C326.856 239.378 320.867 240.619 314.242 240.619C307.099 240.619 300.651 238.837 294.887 235.263C289.124 231.689 284.602 226.797 281.319 220.575C278.098 214.302 276.483 207.238 276.483 199.406C276.483 191.573 278.093 184.542 281.319 178.321C284.607 172.043 289.129 167.118 294.887 163.545C300.647 159.971 307.099 158.189 314.242 158.189C319.084 158.189 323.607 158.966 327.81 160.521C332.018 162.021 335.675 164.183 338.786 167.002C341.956 169.766 344.461 173.053 346.303 176.853H371.536C369.347 168.961 365.514 161.993 360.043 155.943C354.627 149.893 347.942 145.194 339.994 141.857C332.101 138.519 323.463 136.844 314.071 136.844C302.489 136.844 292.008 139.575 282.616 145.051C273.223 150.462 265.849 157.957 260.494 167.516C255.138 177.02 252.457 187.648 252.457 199.401C252.457 211.155 255.138 221.816 260.494 231.375C265.854 240.878 273.228 248.364 282.616 253.84Z" fill="white"/>
<path d="M135.953 352H263.953V376H135.953V352Z" fill="white"/>
</g>
<defs>
<linearGradient id="paint0_linear_553_2190" x1="478.222" y1="31.8557" x2="8.58297" y2="501.494" gradientUnits="userSpaceOnUse">
<stop offset="0.28" stop-color="#7256FF"/>
<stop offset="0.66" stop-color="#00D980"/>
</linearGradient>
<linearGradient id="paint1_linear_553_2190" x1="517.742" y1="451.03" x2="315.819" y2="15.509" gradientUnits="userSpaceOnUse">
<stop offset="0.3" stop-color="#FF43F2"/>
<stop offset="0.54" stop-color="#7256FF"/>
</linearGradient>
<clipPath id="clip0_553_2190">
<rect width="512" height="512" fill="white"/>
</clipPath>
</defs>
</svg>
