<svg width="512" height="512" viewBox="0 0 512 512" fill="none" xmlns="http://www.w3.org/2000/svg">
<g clip-path="url(#clip0_553_2290)">
<path d="M131.647 48H33.5774C15.1474 48 0.287443 63.095 0.582442 81.5248L1.99244 169.87C2.14244 179.32 6.33744 188.25 13.5125 194.4L318.782 456.055C324.762 461.18 332.382 464 340.258 464H431.053C449.278 464 464.053 449.225 464.053 431V342.975C464.053 333.46 459.942 324.405 452.782 318.14L153.378 56.165C147.362 50.9 139.642 48 131.647 48Z" fill="#FF45ED"/>
<path d="M119.947 48H33.0469C14.8218 48 0.046875 62.775 0.046875 81V181.525C0.046875 183.125 0.161867 184.725 0.396875 186.31L43.9818 483.79C46.3569 499.995 60.2569 512.005 76.6318 512.005H199.812C218.042 512.005 232.817 497.225 232.812 478.995L232.777 330.96C232.777 327.555 232.247 324.17 231.212 320.93L151.382 70.965C147.012 57.29 134.302 48 119.947 48Z" fill="url(#paint0_linear_553_2290)"/>
<path d="M479.053 0H206.033C192.767 0 180.793 7.945 175.633 20.165L49.2526 319.535C47.5026 323.68 46.6175 328.14 46.6575 332.64L47.8575 479.27C48.0075 497.39 62.7375 512 80.8576 512H222.182C228.627 512 234.927 510.115 240.313 506.575L497.187 337.705C506.473 331.605 512.058 321.24 512.058 310.13V33C512.058 14.775 497.278 0 479.053 0Z" fill="url(#paint1_linear_553_2290)"/>
<path d="M416.047 96H96.0469V416H416.047V96Z" fill="black"/>
<path d="M355.349 127.906V156.901H384.004V174.346H355.349V203.451H337.233V174.456H308.578V157.011H337.233V127.906H355.349Z" fill="white"/>
<path d="M273.589 180.453H291.703V209.448H320.358V226.893H291.703V255.998H273.589V227.004H244.934V209.558H273.589V180.453Z" fill="white"/>
<path fill-rule="evenodd" clip-rule="evenodd" d="M136.031 135.953H187.566C195.971 135.953 203.371 137.498 209.776 140.583C216.176 143.668 221.111 148.013 224.566 153.618C228.026 159.223 229.756 165.708 229.756 173.083C229.756 180.458 227.996 187.073 224.482 192.763C220.966 198.453 215.962 202.853 209.476 205.968C207.69 206.825 205.826 207.564 203.882 208.186L232.326 256.008H205.486L179.606 210.643H159.442V256.003H136.031V135.953ZM196.356 188.993C199.302 187.533 201.571 185.448 203.171 182.733C204.771 180.018 205.571 176.858 205.571 173.258C205.571 169.658 204.771 166.443 203.171 163.783C201.571 161.123 199.296 159.068 196.356 157.608C193.411 156.148 189.966 155.423 186.022 155.423H159.436V191.183H186.022C189.966 191.183 193.411 190.448 196.356 188.993Z" fill="white"/>
<path d="M264.055 352H136.055V376H264.055V352Z" fill="white"/>
</g>
<defs>
<linearGradient id="paint0_linear_553_2290" x1="-3.07813" y1="61.365" x2="195.187" y2="489.005" gradientUnits="userSpaceOnUse">
<stop offset="0.19" stop-color="#FF45ED"/>
<stop offset="0.54" stop-color="#FF0A67"/>
</linearGradient>
<linearGradient id="paint1_linear_553_2290" x1="34.6476" y1="479.46" x2="503.413" y2="10.69" gradientUnits="userSpaceOnUse">
<stop offset="0.26" stop-color="#FF0A67"/>
<stop offset="0.65" stop-color="#FDB60D"/>
</linearGradient>
<clipPath id="clip0_553_2290">
<rect width="512" height="512" fill="white"/>
</clipPath>
</defs>
</svg>
