<svg width="512" height="512" viewBox="0 0 512 512" fill="none" xmlns="http://www.w3.org/2000/svg">
<g clip-path="url(#clip0_553_2218)">
<path d="M464.047 131.601V33.5306C464.047 15.1006 448.952 0.24056 430.522 0.535568L342.177 1.94557C332.727 2.09557 323.797 6.29057 317.647 13.4656L55.9918 318.73C50.8669 324.71 48.0469 332.33 48.0469 340.206V431.001C48.0469 449.226 62.8218 464.001 81.0472 464.001H169.072C178.587 464.001 187.642 459.89 193.907 452.73L455.882 153.33C461.147 147.315 464.047 139.595 464.047 131.601Z" fill="#6B57FF"/>
<path d="M464.047 119.9V33C464.047 14.775 449.272 0 431.047 0H330.522C328.922 0 327.322 0.115 325.737 0.35L28.2618 43.935C12.0569 46.31 0.046875 60.21 0.046875 76.585V199.765C0.046875 217.995 14.8269 232.77 33.0569 232.765L181.092 232.73C184.497 232.73 187.882 232.2 191.122 231.165L441.087 151.335C454.762 146.965 464.047 134.255 464.047 119.9Z" fill="url(#paint0_linear_553_2218)"/>
<path d="M512.047 478.99V205.97C512.047 192.705 504.102 180.73 491.882 175.57L192.512 49.1901C188.367 47.4401 183.907 46.555 179.407 46.595L32.7769 47.795C14.6569 47.9401 0.046875 62.6701 0.046875 80.7904V222.115C0.046875 228.56 1.93187 234.86 5.47187 240.245L174.342 497.12C180.442 506.405 190.807 511.99 201.917 511.99H479.047C497.272 511.99 512.047 497.215 512.047 478.99Z" fill="url(#paint1_linear_553_2218)"/>
<path d="M416.047 96H96.0469V416H416.047V96Z" fill="black"/>
<path d="M261.342 227.645C266.658 237.105 273.972 244.54 283.292 249.94V249.92C292.612 255.325 303.018 258.025 314.507 258.025C324.227 258.025 333.142 256.225 341.262 252.625C349.378 249.025 356.142 243.98 361.542 237.489C366.947 231 370.562 223.555 372.393 215.15H347.867C346.267 219.495 343.882 223.315 340.707 226.6C337.532 229.89 333.718 232.42 329.258 234.19C324.798 235.965 319.938 236.849 314.678 236.849C307.587 236.849 301.182 235.08 295.467 231.535C289.752 227.989 285.278 223.12 282.047 216.915C278.818 210.715 277.202 203.725 277.202 195.95C277.202 188.175 278.818 181.19 282.047 174.985C285.278 168.785 289.752 163.91 295.467 160.365C301.187 156.82 307.587 155.049 314.678 155.049C319.938 155.049 324.798 155.94 329.258 157.71C333.718 159.485 337.532 162.015 340.707 165.3C343.882 168.589 346.267 172.405 347.867 176.75H372.393C370.562 168.345 366.942 160.9 361.542 154.41C356.138 147.92 349.378 142.875 341.262 139.275C333.142 135.675 324.227 133.875 314.507 133.875C303.012 133.875 292.607 136.58 283.292 141.98C273.978 147.38 266.658 154.815 261.342 164.275C256.027 173.735 253.367 184.295 253.367 195.96C253.367 207.625 256.027 218.185 261.342 227.645Z" fill="white"/>
<path fill-rule="evenodd" clip-rule="evenodd" d="M135.977 135.934H181.681C193.057 135.934 203.246 138.503 212.251 143.648C221.257 148.794 228.301 155.923 233.391 165.043C238.477 174.163 241.021 184.463 241.021 195.958C241.021 207.454 238.477 217.754 233.391 226.874C228.301 235.994 221.257 243.123 212.251 248.269C203.246 253.414 193.057 255.983 181.681 255.983H135.977V135.934ZM200.201 230.943C205.577 227.743 209.721 223.154 212.637 217.178C215.551 211.203 217.011 204.134 217.011 195.954C217.011 187.774 215.551 180.703 212.637 174.728C209.721 168.754 205.577 164.168 200.201 160.963C194.826 157.763 188.566 156.163 181.421 156.163H159.381V235.738H181.421C188.566 235.738 194.826 234.143 200.201 230.943Z" fill="white"/>
<path d="M264 351.984H136V375.984H264V351.984Z" fill="white"/>
</g>
<defs>
<linearGradient id="paint0_linear_553_2218" x1="450.682" y1="-3.13001" x2="23.0419" y2="195.14" gradientUnits="userSpaceOnUse">
<stop offset="0.18" stop-color="#6B57FF"/>
<stop offset="0.54" stop-color="#FF45ED"/>
</linearGradient>
<linearGradient id="paint1_linear_553_2218" x1="32.5869" y1="34.58" x2="501.357" y2="503.35" gradientUnits="userSpaceOnUse">
<stop offset="0.12" stop-color="#FF45ED"/>
<stop offset="0.92" stop-color="#FC801D"/>
</linearGradient>
<clipPath id="clip0_553_2218">
<rect width="512" height="512" fill="white"/>
</clipPath>
</defs>
</svg>
