<svg width="512" height="512" viewBox="0 0 512 512" fill="none" xmlns="http://www.w3.org/2000/svg">
<g clip-path="url(#clip0_553_2234)">
<path d="M131.647 48H33.5774C15.1474 48 0.287443 63.095 0.582442 81.5248L1.99244 169.87C2.14244 179.32 6.33744 188.25 13.5125 194.4L318.782 456.055C324.762 461.18 332.382 464 340.258 464H431.053C449.278 464 464.053 449.225 464.053 431V342.975C464.053 333.46 459.942 324.405 452.782 318.14L153.378 56.165C147.362 50.9 139.642 48 131.647 48Z" fill="#6B57FF"/>
<path d="M119.947 48H33.0469C14.8218 48 0.046875 62.775 0.046875 81V181.525C0.046875 183.125 0.161867 184.725 0.396875 186.31L43.9818 483.79C46.3569 499.995 60.2569 512.005 76.6318 512.005H199.812C218.042 512.005 232.817 497.225 232.812 478.995L232.777 330.96C232.777 327.555 232.247 324.17 231.212 320.93L151.382 70.965C147.012 57.29 134.302 48 119.947 48Z" fill="url(#paint0_linear_553_2234)"/>
<path d="M479.053 0H206.033C192.767 0 180.793 7.945 175.633 20.165L49.2526 319.535C47.5026 323.68 46.6175 328.14 46.6575 332.64L47.8575 479.27C48.0075 497.39 62.7375 512 80.8576 512H222.182C228.627 512 234.927 510.115 240.313 506.575L497.187 337.705C506.473 331.605 512.058 321.24 512.058 310.13V33C512.053 14.775 497.278 0 479.053 0Z" fill="url(#paint1_linear_553_2234)"/>
<path d="M416.047 96H96.0469V416H416.047V96Z" fill="black"/>
<path fill-rule="evenodd" clip-rule="evenodd" d="M135.977 135.938H181.681C193.057 135.938 203.246 138.507 212.251 143.653C221.257 148.797 228.301 155.927 233.391 165.047C238.477 174.167 241.021 184.467 241.021 195.962C241.021 207.457 238.477 217.757 233.391 226.877C228.301 235.997 221.257 243.127 212.251 248.273C203.246 253.417 193.057 255.987 181.681 255.987H135.977V135.938ZM200.201 230.947C205.577 227.747 209.721 223.157 212.637 217.182C215.551 211.207 217.011 204.137 217.011 195.957C217.011 187.777 215.551 180.707 212.637 174.733C209.721 168.757 205.577 164.173 200.201 160.967C194.826 157.767 188.566 156.167 181.421 156.167H159.381V235.742H181.421C188.566 235.742 194.826 234.147 200.201 230.947Z" fill="white"/>
<path d="M264 351.988H136V375.988H264V351.988Z" fill="white"/>
<path d="M345.37 135.938H249.076L249.07 157.033H285.601V255.987H309.01V157.033H345.37V135.938Z" fill="white"/>
</g>
<defs>
<linearGradient id="paint0_linear_553_2234" x1="-3.07813" y1="61.365" x2="195.187" y2="489.005" gradientUnits="userSpaceOnUse">
<stop offset="0.18" stop-color="#6B57FF"/>
<stop offset="0.54" stop-color="#FF2358"/>
</linearGradient>
<linearGradient id="paint1_linear_553_2234" x1="34.6476" y1="479.46" x2="503.413" y2="10.69" gradientUnits="userSpaceOnUse">
<stop offset="0.12" stop-color="#FF2358"/>
<stop offset="0.92" stop-color="#FF45ED"/>
</linearGradient>
<clipPath id="clip0_553_2234">
<rect width="512" height="512" fill="white"/>
</clipPath>
</defs>
</svg>
