<svg width="512" height="512" viewBox="0 0 512 512" fill="none" xmlns="http://www.w3.org/2000/svg">
<g clip-path="url(#clip0_553_2226)">
<path d="M33.0469 512H306.067C319.332 512 331.307 504.055 336.467 491.835L462.847 192.465C464.597 188.32 465.482 183.86 465.442 179.36L464.242 32.73C464.092 14.61 449.362 0 431.242 0H289.917C283.472 0 277.172 1.885 271.787 5.425L14.9218 174.295C5.63687 180.4 0.046875 190.76 0.046875 201.87V479C0.046875 497.225 14.8218 512 33.0469 512Z" fill="url(#paint0_linear_553_2226)"/>
<path d="M392.151 464H479.046C497.271 464 512.046 449.225 512.046 431V330.475C512.046 328.875 511.931 327.275 511.696 325.69L468.111 28.215C465.736 12.01 451.836 0 435.461 0H312.281C294.051 0 279.276 14.78 279.281 33.01L279.316 181.045C279.316 184.45 279.846 187.835 280.881 191.075L360.711 441.04C365.081 454.715 377.796 464 392.151 464Z" fill="url(#paint1_linear_553_2226)"/>
<path d="M380.447 464H478.517C496.947 464 511.807 448.905 511.512 430.475L512.042 344C511.892 334.55 505.762 323.75 498.587 317.6L193.317 55.945C187.337 50.82 179.717 48 171.842 48H81.0472C62.8218 48 48.0469 62.775 48.0469 81V169.025C48.0469 178.54 52.1569 187.595 59.3169 193.86L358.717 455.835C364.732 461.1 372.452 464 380.447 464Z" fill="#FDB60D"/>
<path d="M416.047 96H96.0469V416H416.047V96Z" fill="black"/>
<path fill-rule="evenodd" clip-rule="evenodd" d="M136.102 135.938H181.806C193.182 135.938 203.371 138.507 212.377 143.653C221.382 148.797 228.426 155.927 233.517 165.047C238.602 174.167 241.146 184.467 241.146 195.962C241.146 207.457 238.602 217.757 233.517 226.877C228.426 235.997 221.382 243.127 212.377 248.273C203.371 253.417 193.182 255.987 181.806 255.987H136.102V135.938ZM200.326 230.947C205.702 227.747 209.846 223.157 212.762 217.182C215.677 211.207 217.137 204.137 217.137 195.957C217.137 187.777 215.677 180.707 212.762 174.733C209.846 168.757 205.702 164.173 200.326 160.967C194.951 157.767 188.691 156.167 181.546 156.167H159.506V235.742H181.546C188.691 235.742 194.951 234.147 200.326 230.947Z" fill="white"/>
<path d="M264 351.988H136V375.988H264V351.988Z" fill="white"/>
<path d="M290.446 135.938H257.871V255.987H280.937V170.322L280.591 164.662L308.202 255.987H325.182L353.137 164.062L352.791 170.322V255.987H375.941V135.938H342.842L319.001 214.742L317.202 225.033L315.142 214.742L290.446 135.938Z" fill="white"/>
</g>
<defs>
<linearGradient id="paint0_linear_553_2226" x1="477.457" y1="32.54" x2="8.68687" y2="501.31" gradientUnits="userSpaceOnUse">
<stop offset="0.31" stop-color="#FF45ED"/>
<stop offset="0.83" stop-color="#6B57FF"/>
</linearGradient>
<linearGradient id="paint1_linear_553_2226" x1="515.176" y1="450.635" x2="316.906" y2="23" gradientUnits="userSpaceOnUse">
<stop offset="0.3" stop-color="#FDB60D"/>
<stop offset="0.7" stop-color="#FF45ED"/>
</linearGradient>
<clipPath id="clip0_553_2226">
<rect width="512" height="512" fill="white"/>
</clipPath>
</defs>
</svg>
