<svg width="512" height="512" viewBox="0 0 512 512" fill="none" xmlns="http://www.w3.org/2000/svg">
<path d="M456.523 77.2818C450.687 74.2129 444.38 72.1413 437.861 71.1525C433.768 70.6938 184.816 22.885 171.639 22.1055C165.174 21.7226 158.686 22.0102 152.279 22.9637C36.503 40.2036 7.386 181.147 102.885 240.023C125.385 253.869 152.389 258.418 178.183 252.708C223.413 242.863 427.263 192.53 440.556 189.641C497.124 177.344 508.91 104.879 456.523 77.2818Z" fill="url(#paint0_linear_553_2198)"/>
<path d="M458.951 294.138C449.161 283.159 272.802 82.7096 235.107 50.0214C227.246 43.2455 218.63 37.3975 209.431 32.5929C191.882 23.4068 171.868 20.0354 152.279 22.9656C47.7785 38.5263 13.8794 154.869 78.4938 220.678C85.4657 227.779 279.607 443.633 281.276 445.744C290.51 457.308 301.703 467.161 314.346 474.853C337.048 488.824 364.295 493.413 390.321 487.65C485.944 466.826 516.806 359.017 458.951 294.138Z" fill="url(#paint1_linear_553_2198)"/>
<path d="M421.845 265.521C417.96 263.477 413.935 261.712 409.8 260.239C406.532 259.074 144.203 176.266 138.415 174.815C128.685 172.38 118.57 171.886 108.649 173.362C14.5032 187.383 -9.17199 301.995 68.4861 349.871C86.7356 361.122 325.944 481.247 332.076 483.548C350.689 490.503 370.917 491.928 390.321 487.652C502.125 463.304 525.397 320.043 421.845 265.521Z" fill="url(#paint2_linear_553_2198)"/>
<path d="M456.521 77.2817C447.564 72.5897 437.348 70.8658 427.347 72.3588C422.218 73.1059 417.186 74.4075 412.339 76.2408C388.892 85.1768 88.8712 177.636 80.2917 181.365C64.0751 188.07 50.0498 199.165 39.7917 213.402C29.5337 227.64 23.4496 244.456 22.223 261.961C20.9964 279.467 24.676 296.967 32.8483 312.496C41.0206 328.025 53.3617 340.967 68.4848 349.868C86.7814 361.127 108.74 364.826 129.716 360.183C137.845 358.436 145.748 355.765 153.27 352.221C190.392 334.63 453.997 185.626 459.631 182.414C469.113 177.135 476.963 169.352 482.323 159.915C487.684 150.479 490.349 139.751 490.028 128.903C489.707 118.055 486.413 107.503 480.504 98.4C474.595 89.2967 466.299 81.9915 456.521 77.2817Z" fill="url(#paint3_linear_553_2198)"/>
<path d="M402.284 109.715H109.715V402.284H402.284V109.715Z" fill="black"/>
<path d="M255.897 347.004H146.184V365.289H255.897V347.004Z" fill="white"/>
<path d="M146.184 145.902H189.104C223.691 145.902 247.588 169.643 247.588 200.613V200.929C247.588 231.899 223.691 255.954 189.104 255.954H146.184V145.902ZM170.395 167.756V234.101H189.104C193.501 234.361 197.904 233.692 202.025 232.137C206.147 230.582 209.894 228.176 213.024 225.076C216.154 221.976 218.595 218.252 220.189 214.145C221.783 210.039 222.494 205.643 222.276 201.243V200.929C222.501 196.513 221.797 192.1 220.209 187.973C218.622 183.847 216.186 180.099 213.06 176.973C209.933 173.846 206.186 171.411 202.059 169.823C197.933 168.236 193.519 167.532 189.104 167.756H170.395Z" fill="white"/>
<path d="M263.262 146H287.525V235.652H335.649V256.006H263.262V146Z" fill="white"/>
<defs>
<linearGradient id="paint0_linear_553_2198" x1="165.052" y1="137.772" x2="449.14" y2="194.391" gradientUnits="userSpaceOnUse">
<stop offset="0.24211" stop-color="#3BEA62"/>
<stop offset="0.85664" stop-color="#FCF84A"/>
</linearGradient>
<linearGradient id="paint1_linear_553_2198" x1="134.632" y1="54.337" x2="407.401" y2="469.213" gradientUnits="userSpaceOnUse">
<stop offset="0.0176" stop-color="#3BEA62"/>
<stop offset="0.78604" stop-color="#087CFA"/>
</linearGradient>
<linearGradient id="paint2_linear_553_2198" x1="130.842" y1="285.181" x2="476.32" y2="409.959" gradientUnits="userSpaceOnUse">
<stop offset="0.12092" stop-color="#1FAEB5"/>
<stop offset="0.97461" stop-color="#087CFA"/>
</linearGradient>
<linearGradient id="paint3_linear_553_2198" x1="31.4585" y1="304.625" x2="477.701" y2="106.848" gradientUnits="userSpaceOnUse">
<stop offset="0.12092" stop-color="#1FAEB5"/>
<stop offset="0.8556" stop-color="#FCF84A"/>
</linearGradient>
</defs>
</svg>
