<svg width="512" height="512" viewBox="0 0 512 512" fill="none" xmlns="http://www.w3.org/2000/svg">
<g clip-path="url(#clip0_553_2242)">
<path d="M127.581 46.5312L32.5772 46.5452C14.5827 46.5452 0 61.1325 0 79.127V171.18C0 180.69 4.15651 189.728 11.3757 195.919L316.662 457.598C322.57 462.657 330.091 465.44 337.869 465.44H432.873C450.867 465.44 465.454 450.853 465.454 432.858V340.792C465.454 331.282 461.298 322.243 454.079 316.053L148.792 54.3788C142.886 49.3146 135.363 46.5312 127.581 46.5312Z" fill="#FF8100"/>
<path d="M116.154 46.5312H32.5818C14.5874 46.5312 0 61.1185 0 79.113V183.854C0 185.395 0.111712 186.936 0.325816 188.462L42.5426 484.012C44.8372 500.066 58.5821 511.986 74.7986 511.986H200.182C218.182 511.986 232.769 497.394 232.765 479.394L232.727 331.087C232.727 327.586 232.164 324.11 231.056 320.791L147.06 68.8079C142.625 55.5052 130.178 46.5312 116.154 46.5312Z" fill="url(#paint0_linear_553_2242)"/>
<path d="M479.42 0H207.674C194.641 0 182.86 7.76843 177.726 19.7446L49.1814 319.67C47.4452 323.724 46.5469 328.094 46.5469 332.506V479.418C46.5469 497.413 61.1342 512 79.1287 512H222.857C229.294 512 235.586 510.092 240.944 506.517L497.494 335.29C506.551 329.249 511.987 319.078 511.987 308.191L512.002 32.5818C512.002 14.5874 497.414 0 479.42 0Z" fill="url(#paint1_linear_553_2242)"/>
<path d="M416 96H96V416H416V96Z" fill="black"/>
<path d="M136 235.085H159.83V156.915H136V136H206.712V156.915H182.882V235.085H206.712V256H136V235.085Z" fill="white"/>
<path d="M218.711 234.402H235.941C239.425 234.402 242.528 233.659 245.241 232.174C247.955 230.689 250.054 228.59 251.539 225.876C253.025 223.162 253.767 220.064 253.767 216.576V136H277.166V218.198C277.166 225.399 275.507 231.872 272.193 237.615C268.879 243.358 264.309 247.859 258.479 251.114C252.649 254.373 246.108 256 238.852 256H218.711V234.402Z" fill="white"/>
<path d="M136 352H264V376H136V352Z" fill="white"/>
</g>
<defs>
<linearGradient id="paint0_linear_553_2242" x1="-5.73906" y1="60.9556" x2="193.164" y2="489.965" gradientUnits="userSpaceOnUse">
<stop offset="0.1" stop-color="#FC801D"/>
<stop offset="0.59" stop-color="#FE2857"/>
</linearGradient>
<linearGradient id="paint1_linear_553_2242" x1="33.7794" y1="480.149" x2="503.418" y2="10.5053" gradientUnits="userSpaceOnUse">
<stop offset="0.21" stop-color="#FE2857"/>
<stop offset="0.7" stop-color="#007EFF"/>
</linearGradient>
<clipPath id="clip0_553_2242">
<rect width="512" height="512" fill="white"/>
</clipPath>
</defs>
</svg>
