<svg width="512" height="512" viewBox="0 0 512 512" fill="none" xmlns="http://www.w3.org/2000/svg">
<g clip-path="url(#clip0_553_2258)">
<path d="M46.5547 384.41L46.5686 479.414C46.5686 497.408 61.156 511.99 79.1504 511.99H171.203C180.713 511.99 189.752 507.834 195.942 500.614L457.616 195.323C462.676 189.417 465.459 181.894 465.459 174.117V79.113C465.459 61.1185 450.872 46.5312 432.878 46.5312H340.81C331.301 46.5312 322.262 50.6877 316.071 57.9069L54.3976 363.198C49.3334 369.106 46.5547 376.627 46.5547 384.41Z" fill="#00D886"/>
<path d="M46.5469 395.86V479.432C46.5469 497.427 61.1342 512.014 79.1287 512.014H183.87C185.41 512.014 186.951 511.903 188.478 511.688L484.028 469.472C500.081 467.177 512.002 453.432 512.002 437.216V311.832C512.002 293.832 497.41 279.245 479.41 279.25L331.102 279.287C327.602 279.287 324.126 279.85 320.806 280.958L68.8235 364.954C55.5208 369.389 46.5469 381.836 46.5469 395.86Z" fill="url(#paint0_linear_553_2258)"/>
<path d="M0 32.5818V304.328C0 317.361 7.76843 329.142 19.7446 334.275L319.67 462.82C323.724 464.556 328.094 465.454 332.506 465.454H479.418C497.413 465.454 512 450.867 512 432.873V289.145C512 282.708 510.092 276.415 506.517 271.058L335.295 14.5082C329.249 5.45047 319.083 0.01396 308.196 0.01396L32.5818 0C14.5874 0 0 14.5874 0 32.5818Z" fill="url(#paint1_linear_553_2258)"/>
<path d="M416 96H96V416H416V96Z" fill="black"/>
<path fill-rule="evenodd" clip-rule="evenodd" d="M188.291 135.742H136.766V255.786H160.174V210.425H187.611C196.183 210.425 203.703 208.881 210.162 205.794C216.68 202.653 221.682 198.247 225.169 192.588C228.71 186.929 230.483 180.241 230.483 172.868C230.483 165.495 228.738 159.009 225.251 153.405C221.82 147.801 216.905 143.46 210.502 140.373C204.098 137.285 196.693 135.742 188.291 135.742ZM197.033 188.821C194.116 190.249 190.69 190.966 186.743 190.966H160.16V155.21H186.743C190.69 155.21 194.116 155.949 197.033 157.437C200.005 158.861 202.288 160.92 203.891 163.612C205.494 166.234 206.294 169.441 206.294 173.042C206.294 176.644 205.49 179.817 203.891 182.56C202.293 185.252 200.005 187.333 197.033 188.821Z" fill="white"/>
<path d="M267.056 249.786C276.377 255.156 286.781 257.848 298.27 257.848V257.839C307.985 257.839 316.906 256.038 325.023 252.436C333.139 248.836 339.883 243.81 345.258 237.347C350.687 230.828 354.32 223.368 356.149 214.967H331.623C330.02 219.308 327.623 223.144 324.421 226.456C321.275 229.716 317.471 232.234 313.015 234.003C308.559 235.771 303.699 236.662 298.439 236.662C291.351 236.662 284.948 234.894 279.234 231.348C273.515 227.801 269.026 222.946 265.77 216.772C262.568 210.548 260.97 203.538 260.97 195.765C260.97 187.993 262.568 181.016 265.77 174.842C269.031 168.613 273.515 163.725 279.234 160.179C284.948 156.633 291.351 154.864 298.439 154.864C303.695 154.864 308.555 155.756 313.015 157.524C317.475 159.292 321.275 161.842 324.421 165.154C327.623 168.416 330.02 172.219 331.623 176.56H356.149C354.316 168.158 350.687 160.73 345.258 154.267C339.883 147.749 333.139 142.692 325.023 139.09C316.906 135.488 307.985 133.688 298.27 133.688C286.776 133.688 276.372 136.398 267.056 141.832C257.736 147.202 250.419 154.64 245.103 164.125C239.789 173.556 237.129 184.103 237.129 195.765C237.129 207.428 239.789 218.007 245.103 227.493C250.423 236.924 257.736 244.352 267.056 249.786Z" fill="white"/>
<path d="M135.953 352.008H263.953V376.008H135.953V352.008Z" fill="white"/>
</g>
<defs>
<linearGradient id="paint0_linear_553_2258" x1="60.9713" y1="517.753" x2="489.981" y2="318.846" gradientUnits="userSpaceOnUse">
<stop offset="0.1" stop-color="#00D886"/>
<stop offset="0.59" stop-color="#F0EB18"/>
</linearGradient>
<linearGradient id="paint1_linear_553_2258" x1="480.149" y1="478.222" x2="10.5054" y2="8.57833" gradientUnits="userSpaceOnUse">
<stop offset="0.3" stop-color="#F0EB18"/>
<stop offset="0.7" stop-color="#00C4F4"/>
</linearGradient>
<clipPath id="clip0_553_2258">
<rect width="512" height="512" fill="white"/>
</clipPath>
</defs>
</svg>
