<svg width="512" height="512" viewBox="0 0 512 512" fill="none" xmlns="http://www.w3.org/2000/svg">
<g clip-path="url(#clip0_553_2250)">
<path d="M384.417 465.44L479.421 465.426C497.415 465.426 511.998 450.839 511.998 432.845V340.792C511.998 331.282 507.842 322.243 500.622 316.053L195.331 54.3741C189.424 49.3146 181.902 46.5312 174.125 46.5312H79.1209C61.1264 46.5312 46.5391 61.1185 46.5391 79.113V171.18C46.5391 180.69 50.6956 189.728 57.9148 195.919L363.202 457.593C369.108 462.657 376.634 465.44 384.417 465.44Z" fill="#00D886"/>
<path d="M395.845 465.454H479.417C497.411 465.454 511.999 450.867 511.999 432.873V328.131C511.999 326.591 511.887 325.05 511.673 323.523L469.452 27.9738C467.162 11.925 453.412 0 437.2 0H311.816C293.817 0 279.23 14.592 279.234 32.5911L279.272 180.899C279.272 184.399 279.835 187.876 280.942 191.194L364.938 443.178C369.374 456.481 381.821 465.454 395.845 465.454Z" fill="url(#paint0_linear_553_2250)"/>
<path d="M32.5818 512H304.328C317.361 512 329.142 504.231 334.275 492.255L462.82 192.33C464.556 188.276 465.454 183.906 465.454 179.494V32.5818C465.454 14.5874 450.867 0 432.873 0H289.145C282.708 0 276.415 1.90836 271.058 5.48306L14.5082 176.705C5.45047 182.751 0.01396 192.917 0.01396 203.804L0 479.418C0 497.413 14.5874 512 32.5818 512Z" fill="url(#paint1_linear_553_2250)"/>
<path d="M416 96H96V416H416V96Z" fill="black"/>
<path d="M158.112 252.996C167.504 258.408 177.99 261.12 189.567 261.12C200.686 261.12 210.708 258.644 219.638 253.686C228.623 248.728 235.678 241.965 240.807 233.378C245.992 224.74 248.584 215.093 248.584 204.432V194.929H197.344V213.506H225.472C224.894 217.99 223.263 222.08 220.587 225.777C217.42 230.151 213.129 233.586 207.713 236.058C202.352 238.535 196.363 239.775 189.738 239.775C182.596 239.775 176.148 237.994 170.384 234.419C164.62 230.846 160.098 225.953 156.816 219.731C153.589 213.459 151.979 206.395 151.979 198.562C151.979 190.73 153.589 183.698 156.816 177.477C160.103 171.2 164.625 166.274 170.384 162.701C176.143 159.127 182.596 157.345 189.738 157.345C194.58 157.345 199.103 158.122 203.306 159.678C207.514 161.178 211.171 163.339 214.282 166.158C217.448 168.922 219.957 172.209 221.8 176.01H247.033C244.844 168.117 241.01 161.15 235.539 155.1C230.123 149.05 223.438 144.351 215.49 141.014C207.597 137.676 198.955 136 189.567 136C177.985 136 167.5 138.731 158.112 144.207C148.72 149.619 141.345 157.114 135.99 166.673C130.634 176.176 127.953 186.805 127.953 198.558C127.953 210.311 130.634 220.972 135.99 230.531C141.35 240.034 148.724 247.52 158.112 252.996Z" fill="white"/>
<path fill-rule="evenodd" clip-rule="evenodd" d="M289.465 252.996C298.913 258.408 309.426 261.12 321.003 261.12C332.635 261.12 343.153 258.408 352.541 252.996C361.989 247.52 369.391 240.034 374.747 230.531C380.103 220.972 382.783 210.311 382.783 198.558C382.783 186.805 380.103 176.176 374.747 166.673C369.391 157.114 361.989 149.619 352.541 144.207C343.153 138.731 332.58 136 321.003 136C309.426 136 298.913 138.731 289.465 144.207C280.077 149.619 272.675 157.114 267.259 166.673C261.903 176.176 259.223 186.805 259.223 198.558C259.223 210.311 261.903 220.972 267.259 230.531C272.671 240.034 280.077 247.52 289.465 252.996ZM340.362 235.026C334.659 238.6 328.234 240.382 321.091 240.382C313.948 240.382 307.495 238.6 301.736 235.026C296.034 231.397 291.539 226.421 288.256 220.078C285.03 213.686 283.419 206.51 283.419 198.562C283.419 190.614 285.03 183.476 288.256 177.134C291.539 170.742 296.034 165.761 301.736 162.187C307.495 158.558 313.948 156.743 321.091 156.743C328.234 156.743 334.659 158.558 340.362 162.187C346.065 165.761 350.527 170.742 353.754 177.134C356.98 183.471 358.591 190.614 358.591 198.562C358.591 206.51 356.98 213.686 353.754 220.078C350.527 226.416 346.065 231.397 340.362 235.026Z" fill="white"/>
<path d="M135.953 352H263.953V376H135.953V352Z" fill="white"/>
</g>
<defs>
<linearGradient id="paint0_linear_553_2250" x1="509.081" y1="432.361" x2="314.544" y2="12.7674" gradientUnits="userSpaceOnUse">
<stop offset="0.24" stop-color="#00D886"/>
<stop offset="0.51" stop-color="#007DFE"/>
</linearGradient>
<linearGradient id="paint1_linear_553_2250" x1="475.034" y1="35.0441" x2="5.39461" y2="504.683" gradientUnits="userSpaceOnUse">
<stop offset="0.27" stop-color="#007DFE"/>
<stop offset="0.7" stop-color="#D249FC"/>
</linearGradient>
<clipPath id="clip0_553_2250">
<rect width="512" height="512" fill="white"/>
</clipPath>
</defs>
</svg>
