<svg width="512" height="512" viewBox="0 0 512 512" fill="none" xmlns="http://www.w3.org/2000/svg">
<g clip-path="url(#clip0_553_2299)">
<path d="M384.417 465.44L479.421 465.426C497.415 465.426 511.998 450.839 511.998 432.845V340.792C511.998 331.282 507.842 322.243 500.622 316.053L195.331 54.3741C189.424 49.3146 181.902 46.5312 174.125 46.5312H79.1209C61.1264 46.5312 46.5391 61.1185 46.5391 79.113V171.18C46.5391 180.69 50.6956 189.728 57.9148 195.919L363.202 457.593C369.108 462.657 376.634 465.44 384.417 465.44Z" fill="#007DFE"/>
<path d="M395.85 465.454H479.422C497.416 465.454 512.003 450.867 512.003 432.873V328.131C512.003 326.591 511.892 325.05 511.678 323.523L469.456 27.9738C467.162 11.9203 453.417 0 437.2 0H311.816C293.817 0 279.23 14.592 279.234 32.5911L279.272 180.899C279.272 184.399 279.835 187.876 280.942 191.194L364.938 443.178C369.374 456.481 381.826 465.454 395.85 465.454Z" fill="url(#paint0_linear_553_2299)"/>
<path d="M32.5818 512H304.328C317.361 512 329.142 504.231 334.275 492.255L462.82 192.33C464.556 188.276 465.454 183.906 465.454 179.494V32.5818C465.454 14.5874 450.867 0 432.873 0H289.145C282.708 0 276.415 1.90836 271.058 5.48306L14.5082 176.705C5.45047 182.751 0.01396 192.917 0.01396 203.804L0 479.418C0 497.413 14.5874 512 32.5818 512Z" fill="url(#paint1_linear_553_2299)"/>
<path d="M416 96H96V416H416V96Z" fill="black"/>
<path fill-rule="evenodd" clip-rule="evenodd" d="M347.587 165.144C342.499 156.038 335.441 148.857 326.414 143.714C317.442 138.571 307.272 136 295.902 136H250.219V255.995H295.902C307.272 255.995 317.442 253.424 326.414 248.282C335.441 243.138 342.499 236.067 347.587 226.962C352.669 217.746 355.213 207.461 355.213 196C355.213 184.539 352.669 174.249 347.587 165.144ZM326.846 217.214C323.93 223.215 319.788 227.816 314.416 230.925C309.044 234.143 302.785 235.746 295.645 235.746H273.619V156.25H295.645C302.785 156.25 309.044 157.857 314.416 161.066C319.788 164.174 323.93 168.785 326.846 174.782C329.761 180.783 331.217 187.85 331.217 195.995C331.217 204.141 329.761 211.212 326.846 217.214Z" fill="white"/>
<path fill-rule="evenodd" clip-rule="evenodd" d="M160.158 210.679H180.352L206.186 255.999H233.015L204.445 207.933C205.031 207.746 205.628 207.576 206.225 207.406C207.57 207.021 208.915 206.636 210.13 206.074C216.645 202.859 221.646 198.465 225.131 192.79C228.672 187.11 230.444 180.576 230.444 173.073C230.444 165.569 228.699 159.252 225.214 153.682C221.784 148.112 216.871 143.717 210.47 140.613C204.069 137.505 196.667 136.004 188.268 136.004H136.754V255.999H160.154L160.158 210.679ZM160.158 155.5H186.731C190.675 155.5 194.1 156.253 197.016 157.645C199.987 159.146 202.273 161.18 203.872 163.861C205.469 166.538 206.273 169.647 206.273 173.289C206.273 176.929 205.474 180.038 203.872 182.826C202.269 185.502 199.987 187.542 197.016 189.038C194.1 190.535 190.675 191.182 186.731 191.182H160.158V155.5Z" fill="white"/>
<path d="M135.953 352H263.953V376H135.953V352Z" fill="white"/>
</g>
<defs>
<linearGradient id="paint0_linear_553_2299" x1="517.742" y1="451.026" x2="318.84" y2="22.0207" gradientUnits="userSpaceOnUse">
<stop offset="0.21" stop-color="#007DFE"/>
<stop offset="0.55" stop-color="#FFB700"/>
</linearGradient>
<linearGradient id="paint1_linear_553_2299" x1="478.222" y1="31.851" x2="8.58299" y2="501.494" gradientUnits="userSpaceOnUse">
<stop offset="0.23" stop-color="#FFB700"/>
<stop offset="0.73" stop-color="#FF0A67"/>
</linearGradient>
<clipPath id="clip0_553_2299">
<rect width="512" height="512" fill="white"/>
</clipPath>
</defs>
</svg>
