<svg width="512" height="512" viewBox="0 0 512 512" fill="none" xmlns="http://www.w3.org/2000/svg">
<g clip-path="url(#clip0_553_2326)">
<path d="M46.5469 384.41L46.5608 479.414C46.5608 497.408 61.1482 511.99 79.1426 511.99H171.195C180.705 511.99 189.744 507.834 195.934 500.614L457.613 195.323C462.673 189.417 465.456 181.894 465.456 174.117V79.113C465.456 61.1185 450.869 46.5312 432.874 46.5312H340.807C331.298 46.5312 322.259 50.6877 316.068 57.9069L54.3898 363.198C49.3256 369.105 46.5469 376.627 46.5469 384.41Z" fill="#F0EB18"/>
<path d="M46.5469 395.86V479.432C46.5469 497.427 61.1342 512.014 79.1287 512.014H183.87C185.41 512.014 186.951 511.902 188.478 511.688L484.027 469.472C500.081 467.177 512.002 453.432 512.002 437.216V311.832C512.002 293.832 497.41 279.245 479.41 279.25L331.102 279.287C327.602 279.287 324.126 279.85 320.806 280.958L68.8235 364.954C55.5208 369.389 46.5469 381.836 46.5469 395.86Z" fill="url(#paint0_linear_553_2326)"/>
<path d="M0 32.5818V304.328C0 317.361 7.76843 329.142 19.7446 334.275L319.67 462.82C323.723 464.556 328.094 465.454 332.506 465.454H479.418C497.413 465.454 512 450.867 512 432.873V289.145C512 282.708 510.091 276.414 506.517 271.058L335.29 14.5082C329.249 5.45047 319.083 0.01396 308.191 0.01396L32.5818 0C14.5874 0 0 14.5874 0 32.5818Z" fill="url(#paint1_linear_553_2326)"/>
<path d="M416 96H96V416H416V96Z" fill="black"/>
<path d="M169.902 223.688L150.522 136.062H126.266L155.245 256.098H181.826L202.316 168.899L222.55 256.098H249.214L278.366 136.062H254.615L235.838 223.688L214.231 136.062H190.566L169.902 223.688Z" fill="white"/>
<path d="M305.778 253.443C312.521 256.585 320.237 258.16 328.928 258.16C337.618 258.16 345.34 256.562 352.083 253.356C358.826 250.15 364.057 245.754 367.773 240.15C371.545 234.491 373.432 228.111 373.432 221.028C373.432 215.25 372.146 209.936 369.574 205.081C367.001 200.162 363.401 196.046 358.77 192.734C354.196 189.358 348.969 187.075 343.08 185.876L322.672 181.416C318.957 180.506 316.012 178.963 313.839 176.786C311.722 174.609 310.665 171.866 310.665 168.555C310.665 165.643 311.437 163.103 312.981 160.926C314.524 158.698 316.669 156.98 319.411 155.782C322.209 154.527 325.442 153.894 329.098 153.894C332.754 153.894 335.984 154.546 338.785 155.864C341.642 157.118 343.842 158.918 345.386 161.266C346.929 163.549 347.701 166.153 347.701 169.07H371.108C371.049 162.212 369.22 156.158 365.619 150.894C362.073 145.575 357.103 141.427 350.7 138.46C344.297 135.488 336.897 134 328.837 134C320.775 134 313.573 135.543 307.229 138.63C300.886 141.662 295.944 145.915 292.398 151.404C288.857 156.838 287.084 162.979 287.084 169.837C287.084 175.495 288.255 180.59 290.597 185.1C292.945 189.615 296.229 193.418 300.459 196.505C304.689 199.537 309.664 201.682 315.378 202.935L336.557 207.653C340.618 208.631 343.787 210.367 346.075 212.885C348.417 215.402 349.589 218.575 349.589 222.402C349.589 225.489 348.729 228.23 347.017 230.633C345.358 233.035 342.988 234.918 339.901 236.292C336.87 237.61 333.498 238.262 329.268 238.262C325.037 238.262 321.294 237.522 318.037 236.034C314.781 234.546 312.237 232.489 310.408 229.862C308.58 227.238 307.666 224.17 307.666 220.689H284.172C284.286 228.061 286.229 234.578 290.001 240.238C293.831 245.896 299.09 250.301 305.778 253.443Z" fill="white"/>
<path d="M135.945 352H263.945V376H135.945V352Z" fill="white"/>
</g>
<defs>
<linearGradient id="paint0_linear_553_2326" x1="60.9713" y1="517.753" x2="489.981" y2="318.851" gradientUnits="userSpaceOnUse">
<stop offset="0.22" stop-color="#F0EB18"/>
<stop offset="0.59" stop-color="#00C4F4"/>
</linearGradient>
<linearGradient id="paint1_linear_553_2326" x1="480.149" y1="478.222" x2="10.5053" y2="8.583" gradientUnits="userSpaceOnUse">
<stop offset="0.19" stop-color="#00C4F4"/>
<stop offset="0.83" stop-color="#007DFE"/>
</linearGradient>
<clipPath id="clip0_553_2326">
<rect width="512" height="512" fill="white"/>
</clipPath>
</defs>
</svg>
